v -1.000000 1.000000 1.000000
v -1.000000 -1.000000 1.000000
v 1.000000 1.000000 1.000000
v 1.000000 -1.000000 1.000000
v 1.000000 1.000000 -1.000000
v 1.000000 -1.000000 -1.000000
v -1.000000 1.000000 -1.000000
v -1.000000 -1.000000 -1.000000
# 8 vertices

vt 0.000000 1.000000
vt 0.000000 0.000000
vt 1.000000 1.000000
vt 1.000000 0.000000
# 4 texture coordinates

vn -0.666667 0.666667 0.333333
vn -0.408248 -0.408248 0.816497
vn 0.408248 0.408248 0.816497
vn 0.666667 -0.666667 0.333333
vn 0.666667 0.666667 -0.333333
vn 0.408248 -0.408248 -0.816497
vn -0.408248 0.408248 -0.816497
vn -0.666667 -0.666667 -0.333333
# 8 normals

g Box05
s 1
f 1/1/1 2/2/2 3/3/3
f 2/2/2 4/4/4 3/3/3
f 3/1/3 4/2/4 5/3/5
f 4/2/4 6/4/6 5/3/5
f 5/1/5 6/2/6 7/3/7
f 6/2/6 8/4/8 7/3/7
f 7/1/7 8/2/8 1/3/1
f 8/2/8 2/4/2 1/3/1
f 7/1/7 1/2/1 5/3/5
f 1/2/1 3/4/3 5/3/5
f 2/1/2 8/2/8 4/3/4
f 8/2/8 6/4/6 4/3/4
# 12 triangles in group

# 12 triangles total
